<?xml version="1.0" standalone="no"?>
<!DOCTYPE svg PUBLIC "-//W3C//DTD SVG 20010904//EN"
 "http://www.w3.org/TR/2001/REC-SVG-20010904/DTD/svg10.dtd">
<svg version="1.0" xmlns="http://www.w3.org/2000/svg"
 width="512.000000pt" height="512.000000pt" viewBox="0 0 512.000000 512.000000"
 preserveAspectRatio="xMidYMid meet">
<metadata>
Created by potrace 1.11, written by Peter Selinger 2001-2013
</metadata>
<g transform="translate(0.000000,512.000000) scale(0.100000,-0.100000)"
fill="#000000" stroke="none">
<path d="M2376 4140 c-287 -36 -524 -141 -754 -335 l-94 -78 95 -95 96 -95 58
53 c127 117 298 208 481 258 90 24 113 26 302 26 189 0 212 -2 302 -26 183
-50 354 -141 481 -258 l58 -53 95 94 95 94 -63 58 c-191 174 -415 287 -668
338 -109 22 -377 33 -484 19z"/>
<path d="M2360 3601 c-47 -10 -118 -32 -158 -49 -81 -34 -222 -125 -267 -171
l-29 -32 91 -90 91 -91 53 42 c64 51 193 114 267 129 29 6 98 11 152 11 54 0
123 -5 152 -11 74 -15 203 -78 267 -129 l53 -42 91 91 91 90 -29 32 c-48 49
-201 146 -284 178 -159 61 -371 78 -541 42z"/>
<path d="M2110 2942 c-19 -9 -45 -32 -57 -51 l-23 -34 0 -819 c0 -887 -2 -856
55 -908 l27 -25 448 0 448 0 27 25 c57 52 55 21 55 908 l0 819 -23 34 c-46 69
-44 69 -507 69 -375 0 -418 -2 -450 -18z m565 -280 c47 -24 106 -83 131 -132
26 -51 24 -153 -4 -207 -51 -99 -141 -157 -242 -157 -101 0 -191 58 -242 157
-28 54 -30 156 -4 207 35 68 105 128 176 151 41 14 142 3 185 -19z"/>
</g>
</svg>
